<svg xmlns="http://www.w3.org/2000/svg" xmlns:xlink="http://www.w3.org/1999/xlink" width="2400" zoomAndPan="magnify" viewBox="0 0 1800 374.999991" height="500" preserveAspectRatio="xMidYMid meet" version="1.0"><defs><g/><clipPath id="883ddb21c0"><rect x="0" width="1744" y="0" height="180"/></clipPath></defs><rect x="-180" width="2160" fill="#ffffff" y="-37.499999" height="449.999989" fill-opacity="1"/><rect x="-180" width="2160" fill="#ffffff" y="-37.499999" height="449.999989" fill-opacity="1"/><g transform="matrix(1, 0, 0, 1, 33, 96)"><g clip-path="url(#883ddb21c0)"><g fill="#7ed957" fill-opacity="1"><g transform="translate(4.714351, 141.236927)"><g><path d="M 31.015625 1.75 C 24.085938 1.75 17.722656 0.457031 11.921875 -2.125 C 6.117188 -4.707031 1.363281 -8.390625 -2.34375 -13.171875 L 10.828125 -28.96875 C 16.390625 -21.457031 22.726562 -17.703125 29.84375 -17.703125 C 39.5 -17.703125 44.328125 -23.359375 44.328125 -34.671875 L 44.328125 -83.390625 L 8.34375 -83.390625 L 8.34375 -102.40625 L 67.875 -102.40625 L 67.875 -35.984375 C 67.875 -23.398438 64.753906 -13.960938 58.515625 -7.671875 C 52.273438 -1.390625 43.109375 1.75 31.015625 1.75 Z M 31.015625 1.75 "/></g></g></g><g fill="#7ed957" fill-opacity="1"><g transform="translate(83.852577, 141.236927)"><g><path d="M 61.734375 1.75 C 51.109375 1.75 41.523438 -0.539062 32.984375 -5.125 C 24.453125 -9.707031 17.769531 -16.019531 12.9375 -24.0625 C 8.113281 -32.113281 5.703125 -41.160156 5.703125 -51.203125 C 5.703125 -61.242188 8.113281 -70.285156 12.9375 -78.328125 C 17.769531 -86.378906 24.453125 -92.695312 32.984375 -97.28125 C 41.523438 -101.863281 51.109375 -104.15625 61.734375 -104.15625 C 72.367188 -104.15625 81.925781 -101.863281 90.40625 -97.28125 C 98.894531 -92.695312 105.578125 -86.378906 110.453125 -78.328125 C 115.328125 -70.285156 117.765625 -61.242188 117.765625 -51.203125 C 117.765625 -41.160156 115.328125 -32.113281 110.453125 -24.0625 C 105.578125 -16.019531 98.894531 -9.707031 90.40625 -5.125 C 81.925781 -0.539062 72.367188 1.75 61.734375 1.75 Z M 61.734375 -18.4375 C 67.785156 -18.4375 73.25 -19.820312 78.125 -22.59375 C 83 -25.375 86.828125 -29.25 89.609375 -34.21875 C 92.390625 -39.195312 93.78125 -44.859375 93.78125 -51.203125 C 93.78125 -57.546875 92.390625 -63.203125 89.609375 -68.171875 C 86.828125 -73.148438 83 -77.023438 78.125 -79.796875 C 73.25 -82.578125 67.785156 -83.96875 61.734375 -83.96875 C 55.691406 -83.96875 50.226562 -82.578125 45.34375 -79.796875 C 40.46875 -77.023438 36.640625 -73.148438 33.859375 -68.171875 C 31.085938 -63.203125 29.703125 -57.546875 29.703125 -51.203125 C 29.703125 -44.859375 31.085938 -39.195312 33.859375 -34.21875 C 36.640625 -29.25 40.46875 -25.375 45.34375 -22.59375 C 50.226562 -19.820312 55.691406 -18.4375 61.734375 -18.4375 Z M 61.734375 -18.4375 "/></g></g></g><g fill="#7ed957" fill-opacity="1"><g transform="translate(207.314047, 141.236927)"><g><path d="M 106.0625 -102.40625 L 106.0625 0 L 82.359375 0 L 82.359375 -41.984375 L 35.84375 -41.984375 L 35.84375 0 L 12.140625 0 L 12.140625 -102.40625 L 35.84375 -102.40625 L 35.84375 -62.03125 L 82.359375 -62.03125 L 82.359375 -102.40625 Z M 106.0625 -102.40625 "/></g></g></g><g fill="#7ed957" fill-opacity="1"><g transform="translate(325.509416, 141.236927)"><g><path d="M 106.0625 -102.40625 L 106.0625 0 L 86.609375 0 L 35.546875 -62.171875 L 35.546875 0 L 12.140625 0 L 12.140625 -102.40625 L 31.75 -102.40625 L 82.65625 -40.234375 L 82.65625 -102.40625 Z M 106.0625 -102.40625 "/></g></g></g><g fill="#7ed957" fill-opacity="1"><g transform="translate(443.704786, 141.236927)"><g/></g></g><g fill="#7ed957" fill-opacity="1"><g transform="translate(485.102418, 141.236927)"><g><path d="M 31.015625 1.75 C 24.085938 1.75 17.722656 0.457031 11.921875 -2.125 C 6.117188 -4.707031 1.363281 -8.390625 -2.34375 -13.171875 L 10.828125 -28.96875 C 16.390625 -21.457031 22.726562 -17.703125 29.84375 -17.703125 C 39.5 -17.703125 44.328125 -23.359375 44.328125 -34.671875 L 44.328125 -83.390625 L 8.34375 -83.390625 L 8.34375 -102.40625 L 67.875 -102.40625 L 67.875 -35.984375 C 67.875 -23.398438 64.753906 -13.960938 58.515625 -7.671875 C 52.273438 -1.390625 43.109375 1.75 31.015625 1.75 Z M 31.015625 1.75 "/></g></g></g><g fill="#7ed957" fill-opacity="1"><g transform="translate(564.240644, 141.236927)"><g><path d="M 91.4375 -19.015625 L 91.4375 0 L 12.140625 0 L 12.140625 -102.40625 L 89.53125 -102.40625 L 89.53125 -83.390625 L 35.703125 -83.390625 L 35.703125 -61.15625 L 83.25 -61.15625 L 83.25 -42.71875 L 35.703125 -42.71875 L 35.703125 -19.015625 Z M 91.4375 -19.015625 "/></g></g></g><g fill="#7ed957" fill-opacity="1"><g transform="translate(662.395446, 141.236927)"><g><path d="M 35.84375 -83.390625 L 35.84375 -56.328125 L 83.25 -56.328125 L 83.25 -37.3125 L 35.84375 -37.3125 L 35.84375 0 L 12.140625 0 L 12.140625 -102.40625 L 89.53125 -102.40625 L 89.53125 -83.390625 Z M 35.84375 -83.390625 "/></g></g></g><g fill="#7ed957" fill-opacity="1"><g transform="translate(755.869219, 141.236927)"><g><path d="M 35.84375 -83.390625 L 35.84375 -56.328125 L 83.25 -56.328125 L 83.25 -37.3125 L 35.84375 -37.3125 L 35.84375 0 L 12.140625 0 L 12.140625 -102.40625 L 89.53125 -102.40625 L 89.53125 -83.390625 Z M 35.84375 -83.390625 "/></g></g></g><g fill="#7ed957" fill-opacity="1"><g transform="translate(849.342992, 141.236927)"><g><path d="M 77.390625 0 L 57.640625 -28.53125 L 35.84375 -28.53125 L 35.84375 0 L 12.140625 0 L 12.140625 -102.40625 L 56.46875 -102.40625 C 65.539062 -102.40625 73.414062 -100.894531 80.09375 -97.875 C 86.78125 -94.851562 91.925781 -90.5625 95.53125 -85 C 99.132812 -79.4375 100.9375 -72.851562 100.9375 -65.25 C 100.9375 -57.644531 99.109375 -51.085938 95.453125 -45.578125 C 91.796875 -40.066406 86.601562 -35.847656 79.875 -32.921875 L 102.84375 0 Z M 76.953125 -65.25 C 76.953125 -71 75.097656 -75.410156 71.390625 -78.484375 C 67.679688 -81.554688 62.269531 -83.09375 55.15625 -83.09375 L 35.84375 -83.09375 L 35.84375 -47.40625 L 55.15625 -47.40625 C 62.269531 -47.40625 67.679688 -48.960938 71.390625 -52.078125 C 75.097656 -55.203125 76.953125 -59.59375 76.953125 -65.25 Z M 76.953125 -65.25 "/></g></g></g><g fill="#7ed957" fill-opacity="1"><g transform="translate(956.859853, 141.236927)"><g><path d="M 91.4375 -19.015625 L 91.4375 0 L 12.140625 0 L 12.140625 -102.40625 L 89.53125 -102.40625 L 89.53125 -83.390625 L 35.703125 -83.390625 L 35.703125 -61.15625 L 83.25 -61.15625 L 83.25 -42.71875 L 35.703125 -42.71875 L 35.703125 -19.015625 Z M 91.4375 -19.015625 "/></g></g></g><g fill="#7ed957" fill-opacity="1"><g transform="translate(1053.990559, 141.236927)"><g><path d="M 61.296875 -36.28125 L 61.296875 0 L 37.59375 0 L 37.59375 -36.578125 L -2.046875 -102.40625 L 23.109375 -102.40625 L 50.46875 -56.90625 L 77.828125 -102.40625 L 101.09375 -102.40625 Z M 61.296875 -36.28125 "/></g></g></g><g fill="#7ed957" fill-opacity="1"><g transform="translate(1152.876737, 141.236927)"><g/></g></g><g fill="#7ed957" fill-opacity="1"><g transform="translate(1194.274422, 141.236927)"><g><path d="M 31.015625 1.75 C 24.085938 1.75 17.722656 0.457031 11.921875 -2.125 C 6.117188 -4.707031 1.363281 -8.390625 -2.34375 -13.171875 L 10.828125 -28.96875 C 16.390625 -21.457031 22.726562 -17.703125 29.84375 -17.703125 C 39.5 -17.703125 44.328125 -23.359375 44.328125 -34.671875 L 44.328125 -83.390625 L 8.34375 -83.390625 L 8.34375 -102.40625 L 67.875 -102.40625 L 67.875 -35.984375 C 67.875 -23.398438 64.753906 -13.960938 58.515625 -7.671875 C 52.273438 -1.390625 43.109375 1.75 31.015625 1.75 Z M 31.015625 1.75 "/></g></g></g><g fill="#7ed957" fill-opacity="1"><g transform="translate(1271.218255, 141.236927)"><g><path d="M 79.578125 -21.9375 L 32.03125 -21.9375 L 22.96875 0 L -1.3125 0 L 44.328125 -102.40625 L 67.734375 -102.40625 L 113.53125 0 L 88.65625 0 Z M 72.125 -39.9375 L 55.890625 -79.140625 L 39.640625 -39.9375 Z M 72.125 -39.9375 "/></g></g></g><g fill="#7ed957" fill-opacity="1"><g transform="translate(1383.26984, 141.236927)"><g><path d="M 105.328125 0 L 105.1875 -61.4375 L 75.046875 -10.828125 L 64.375 -10.828125 L 34.375 -60.125 L 34.375 0 L 12.140625 0 L 12.140625 -102.40625 L 31.75 -102.40625 L 70.078125 -38.765625 L 107.828125 -102.40625 L 127.28125 -102.40625 L 127.578125 0 Z M 105.328125 0 "/></g></g></g><g fill="#7ed957" fill-opacity="1"><g transform="translate(1522.968476, 141.236927)"><g><path d="M 91.4375 -19.015625 L 91.4375 0 L 12.140625 0 L 12.140625 -102.40625 L 89.53125 -102.40625 L 89.53125 -83.390625 L 35.703125 -83.390625 L 35.703125 -61.15625 L 83.25 -61.15625 L 83.25 -42.71875 L 35.703125 -42.71875 L 35.703125 -19.015625 Z M 91.4375 -19.015625 "/></g></g></g><g fill="#7ed957" fill-opacity="1"><g transform="translate(1621.123329, 141.236927)"><g><path d="M 106.0625 -102.40625 L 106.0625 0 L 86.609375 0 L 35.546875 -62.171875 L 35.546875 0 L 12.140625 0 L 12.140625 -102.40625 L 31.75 -102.40625 L 82.65625 -40.234375 L 82.65625 -102.40625 Z M 106.0625 -102.40625 "/></g></g></g></g></g></svg>